<svg width="97" height="24" viewBox="0 0 97 24" fill="none" xmlns="http://www.w3.org/2000/svg">
<path fill-rule="evenodd" clip-rule="evenodd" d="M44.5732 4.37212V0.560059H26.8208V4.37212H39.5395L26.1465 19.6206V23.4328H45.2467V19.6206H31.3153L44.5732 4.37212Z" fill="black"/>
<path fill-rule="evenodd" clip-rule="evenodd" d="M84.595 19.3917C80.5399 19.3917 77.2504 16.0852 77.2232 11.9964C77.2504 7.90732 80.5399 4.60082 84.595 4.60082C88.6506 4.60082 91.9399 7.90732 91.9669 11.9964C91.9399 16.0852 88.6506 19.3917 84.595 19.3917ZM91.9669 0.559972V2.83014C89.9523 1.18378 87.3886 0.197021 84.595 0.197021C78.1472 0.197021 72.9158 5.45046 72.8656 11.9495H72.8633C72.8633 11.9653 72.8647 11.981 72.8647 11.9964C72.8647 12.0121 72.8633 12.0274 72.8633 12.0434H72.8656C72.9158 18.5429 78.1472 23.7963 84.595 23.7963C87.3882 23.7963 89.9523 22.809 91.9669 21.1628V23.4328H96.3266V0.559972H91.9669Z" fill="black"/>
<path fill-rule="evenodd" clip-rule="evenodd" d="M60.046 0.196777C57.7591 0.196777 55.6453 0.938417 53.9222 2.19291V0.559925H49.5625V23.4329H53.9222V10.1454C54.2386 7.01199 56.8591 4.56714 60.046 4.56714C63.4455 4.56714 66.2014 7.34976 66.2014 10.7829H70.5293C70.5293 4.93619 65.8355 0.196777 60.046 0.196777Z" fill="black"/>
<path fill-rule="evenodd" clip-rule="evenodd" d="M4.56059 10.1159C5.37325 6.92725 8.2381 4.57053 11.65 4.57053C15.0614 4.57053 17.926 6.92725 18.7387 10.1159H4.56059ZM23.2971 11.8679C23.2475 5.41368 18.0529 0.197021 11.65 0.197021C5.2918 0.197021 0.127869 5.34109 0.00688525 11.7326L0 11.7312C0 11.7703 0.0027541 11.8087 0.00295082 11.848C0.00295082 11.8545 0.00255738 11.861 0.00255738 11.8679H0C0 11.8834 0.00118033 11.8988 0.00118033 11.9141C0.00118033 11.9299 0 11.9452 0 11.961H0.00255738L0.00609836 11.9623C0.130033 18.5084 5.4901 23.7965 12.0653 23.7965H13.0292C16.1752 23.7965 19.1553 22.5874 21.4202 20.3932L21.6942 20.1274L18.6659 17.082L18.3988 17.3379C16.945 18.7301 15.038 19.4972 13.0292 19.4972H12.0653C8.48125 19.4972 5.43207 17.0535 4.55252 13.7098L4.56059 13.7126H18.7387H23.1547C23.2436 13.1415 23.2926 12.5564 23.2971 11.961H23.2995C23.2995 11.9452 23.2985 11.9299 23.2985 11.9141C23.2985 11.8988 23.2995 11.8834 23.2995 11.8679H23.2971Z" fill="black"/>
</svg>
